<svg width="160" height="160" viewBox="0 0 160 160" fill="none" xmlns="http://www.w3.org/2000/svg">
<path d="M55.6691 48.228L46.1364 60.0355L53.7346 46.871C52.5745 46.158 51.3413 45.5715 50.0561 45.1215C50.3122 42.5327 50.0324 39.919 49.2341 37.4431C48.4358 34.9672 47.1361 32.6823 45.4161 30.7307C43.6961 28.7791 41.5925 27.2027 39.2366 26.0997C36.8806 24.9967 34.3227 24.3907 31.7223 24.3196C29.1219 24.2484 26.5347 24.7136 24.122 25.6862C21.7092 26.6587 19.5226 28.1177 17.6984 29.9723C15.8743 31.8269 14.4516 34.0374 13.5191 36.4659C12.5867 38.8944 12.1643 41.4889 12.2785 44.0878L29.4972 45.2205L12.5813 46.7402C13.058 49.2783 14.048 51.6924 15.4904 53.8346C16.9329 55.9767 18.7975 57.8019 20.9701 59.1981L30.3963 53.0822L22.557 60.1103C23.3347 60.5105 24.1391 60.8565 24.9645 61.1458C24.549 65.3722 25.5659 69.6156 27.852 73.1946C30.1381 76.7736 33.5607 79.4804 37.5701 80.8804C37.2507 84.1077 37.7652 87.3629 39.0644 90.3343C40.3636 93.3058 42.404 95.8939 44.9901 97.8508C47.5761 99.8078 50.6214 101.068 53.834 101.511C57.0467 101.953 60.3193 101.564 63.3383 100.379C63.506 101.121 63.8028 101.828 64.2149 102.467C64.8018 103.409 65.6298 104.176 66.6131 104.69C66.6762 105.796 67.0224 106.867 67.6184 107.801C68.2144 108.736 69.0402 109.501 70.0168 110.024C70.0814 111.13 70.4281 112.201 71.0239 113.134C71.6198 114.068 72.4449 114.833 73.4205 115.357C73.4839 116.463 73.8299 117.535 74.4255 118.469C75.0211 119.403 75.8464 120.169 76.8224 120.693C76.8754 121.801 77.2225 122.875 77.828 123.804C79.3663 126.213 82.1065 127.215 83.9476 126.047C85.7888 124.879 86.0336 121.966 84.4953 119.555C83.9088 118.614 83.0824 117.845 82.1009 117.329C82.037 116.222 81.69 115.149 81.0931 114.214C80.4962 113.279 79.6693 112.513 78.6916 111.989C78.6272 110.883 78.2803 109.812 77.6841 108.878C77.0879 107.945 76.2622 107.18 75.286 106.656C75.2225 105.55 74.8762 104.479 74.2802 103.545C73.6842 102.612 72.8586 101.847 71.8822 101.323C71.8287 100.215 71.481 99.1419 70.8747 98.2131C70.476 97.5786 69.97 97.0182 69.3794 96.557C71.754 94.3288 73.514 91.526 74.4895 88.4192C75.465 85.3124 75.623 82.0066 74.9483 78.8209C74.2736 75.6353 72.789 72.6774 70.6377 70.2328C68.4865 67.7882 65.7413 65.9396 62.6673 64.8654C62.9757 61.7295 62.4975 58.5662 61.276 55.6616C60.0544 52.757 58.128 50.2027 55.671 48.2299L55.6691 48.228Z" fill="#1976D2"/>
<path d="M94.7795 38.7499L93.0785 39.8284L94.1122 37.9499C93.8202 37.7138 93.4577 37.5822 93.0823 37.576H93.0561C92.9378 37.5777 92.8196 37.5689 92.7028 37.5499L92.1252 37.9237L92.3738 37.4732C91.9654 37.3309 91.6121 37.0634 91.3645 36.7087L90.3327 37.363L90.9851 36.1779C90.7105 35.8236 90.3606 35.5349 89.9607 35.3325C89.5608 35.1301 89.1209 35.0192 88.6729 35.0078C87.5981 35.0078 86.643 35.6471 86.0262 36.6415C85.8428 36.9376 85.5844 37.1801 85.2772 37.3442C84.9699 37.5083 84.6247 37.5883 84.2766 37.576H84.2187C83.0336 37.576 82.0729 38.92 82.0729 40.5667C82.0729 42.2134 83.0336 43.5667 84.2187 43.5667C84.4793 43.5658 84.7359 43.5017 84.9663 43.3798C85.3696 43.1838 85.8106 43.0778 86.2589 43.0691C86.7072 43.0604 87.152 43.1492 87.5626 43.3293C87.91 43.484 88.2861 43.5639 88.6664 43.5639C89.0466 43.5639 89.4227 43.484 89.7701 43.3293C90.1777 43.1528 90.6184 43.0659 91.0625 43.0747C91.5066 43.0834 91.9436 43.1874 92.3439 43.3798C92.5743 43.5017 92.8309 43.5659 93.0916 43.5667C94.2767 43.5667 95.2374 42.2246 95.2374 40.5667C95.2392 39.9323 95.0817 39.3076 94.7795 38.7499Z" fill="#1976D2"/>
<path opacity="0.03" d="M91.5739 43.1408C90.9551 43.024 90.3156 43.0936 89.7365 43.3408C89.3891 43.4955 89.013 43.5754 88.6327 43.5754C88.2524 43.5754 87.8764 43.4955 87.529 43.3408C87.1181 43.1607 86.673 43.0719 86.2244 43.0806C85.7758 43.0893 85.3345 43.1953 84.9309 43.3913C84.7006 43.5136 84.4439 43.5778 84.1832 43.5782C83.129 43.5782 82.2542 42.5184 82.071 41.1203C82.2807 40.9684 82.4596 40.7781 82.5981 40.5595C83.215 39.5651 84.172 38.9277 85.2449 38.9277C86.3178 38.9277 87.2617 39.5576 87.8785 40.5408C88.0626 40.8382 88.3204 41.083 88.6269 41.2513C88.9335 41.4197 89.2784 41.5059 89.6281 41.5016H89.6561C90.4953 41.4885 91.215 42.1614 91.5739 43.1408Z" fill="#0857A5"/>
<path d="M157.77 31.4598L156.069 32.5383L157.103 30.6598C156.811 30.4238 156.448 30.2922 156.073 30.286H156.047C155.928 30.2877 155.81 30.2789 155.693 30.2598L155.116 30.6337L155.364 30.1832C154.956 30.0409 154.603 29.7734 154.355 29.4187L153.323 30.0729L153.976 28.8879C153.701 28.5336 153.351 28.2448 152.951 28.0425C152.551 27.8401 152.112 27.7292 151.663 27.7178C150.589 27.7178 149.634 28.357 149.017 29.3514C148.833 29.6476 148.575 29.89 148.268 30.0542C147.96 30.2183 147.615 30.2983 147.267 30.286H147.209C146.024 30.286 145.063 31.6299 145.063 33.2767C145.063 34.9234 146.024 36.2767 147.209 36.2767C147.47 36.2757 147.726 36.2116 147.957 36.0897C148.36 35.8938 148.801 35.7878 149.249 35.7791C149.698 35.7704 150.143 35.8591 150.553 36.0393C150.901 36.1939 151.277 36.2738 151.657 36.2738C152.037 36.2738 152.413 36.1939 152.761 36.0393C153.168 35.8628 153.609 35.7759 154.053 35.7846C154.497 35.7933 154.934 35.8974 155.335 36.0897C155.565 36.2117 155.822 36.2758 156.082 36.2767C157.267 36.2767 158.228 34.9346 158.228 33.2767C158.23 32.6423 158.072 32.0176 157.77 31.4598Z" fill="#1976D2"/>
<path opacity="0.03" d="M154.564 35.8508C153.946 35.7339 153.306 35.8035 152.727 36.0508C152.38 36.2054 152.004 36.2853 151.623 36.2853C151.243 36.2853 150.867 36.2054 150.52 36.0508C150.109 35.8706 149.664 35.7818 149.215 35.7905C148.766 35.7993 148.325 35.9053 147.921 36.1012C147.691 36.2236 147.435 36.2878 147.174 36.2882C146.12 36.2882 145.245 35.2283 145.062 33.8302C145.271 33.6784 145.45 33.4881 145.589 33.2695C146.206 32.2751 147.163 31.6377 148.235 31.6377C149.308 31.6377 150.252 32.2676 150.869 33.2508C151.053 33.5482 151.311 33.7929 151.617 33.9613C151.924 34.1296 152.269 34.2158 152.619 34.2115H152.647C153.486 34.1984 154.206 34.8713 154.564 35.8508Z" fill="#0857A5"/>
<path d="M115.764 49.1047L118.505 50.8468L116.845 47.8281C117.315 47.4535 117.897 47.2463 118.499 47.2393H118.542C118.73 47.2421 118.917 47.2284 119.103 47.1982L120.028 47.7851L119.626 47.0636C120.282 46.8331 120.848 46.403 121.247 45.8337L122.905 46.8842L121.869 44.9795C122.839 43.8169 124.146 43.1104 125.583 43.1104C127.308 43.1104 128.843 44.1347 129.835 45.7272C130.128 46.2044 130.541 46.5959 131.033 46.8621C131.526 47.1283 132.08 47.2597 132.639 47.2431H132.733C134.635 47.2431 136.177 49.4001 136.177 52.0618C136.177 54.7234 134.635 56.8823 132.733 56.8823C132.314 56.8807 131.901 56.7774 131.531 56.5814C130.883 56.2667 130.175 56.0965 129.455 56.0826C128.735 56.0687 128.02 56.2115 127.361 56.501C126.802 56.7507 126.197 56.8798 125.585 56.8798C124.973 56.8798 124.368 56.7507 123.809 56.501C123.155 56.2174 122.447 56.0778 121.733 56.0917C121.02 56.1056 120.318 56.2726 119.675 56.5814C119.308 56.7722 118.901 56.8728 118.488 56.8748C116.583 56.8748 115.041 54.7178 115.041 52.0543C115.031 51.026 115.28 50.0116 115.764 49.1047Z" fill="#1976D2"/>
<path opacity="0.03" d="M120.914 56.1653C121.909 55.9779 122.936 56.0898 123.867 56.4868C124.426 56.7365 125.031 56.8656 125.643 56.8656C126.255 56.8656 126.86 56.7365 127.419 56.4868C128.078 56.1973 128.793 56.0545 129.514 56.0684C130.234 56.0822 130.943 56.2524 131.591 56.5672C131.96 56.7632 132.372 56.8665 132.791 56.8681C134.482 56.8681 135.888 55.1653 136.181 52.9186C135.844 52.6716 135.557 52.3619 135.336 52.0065C134.344 50.4102 132.809 49.3896 131.084 49.3896C129.359 49.3896 127.845 50.4027 126.852 51.984C126.557 52.4604 126.144 52.8526 125.653 53.1227C125.162 53.3929 124.609 53.5318 124.049 53.5261H124.006C122.649 53.513 121.482 54.5934 120.914 56.1653Z" fill="#0857A5"/>
<path d="M154.127 53.4717H5.87285C3.76488 53.4717 2.05603 55.1805 2.05603 57.2885V134.889C2.05603 136.996 3.76488 138.705 5.87285 138.705H154.127C156.235 138.705 157.944 136.996 157.944 134.889V57.2885C157.944 55.1805 156.235 53.4717 154.127 53.4717Z" fill="#F2F2F2"/>
<path d="M157.944 57.2885V59.453H2.05603V57.2885C2.05603 56.2762 2.45816 55.3054 3.17395 54.5896C3.88974 53.8738 4.86057 53.4717 5.87285 53.4717H154.127C155.139 53.4717 156.11 53.8738 156.826 54.5896C157.542 55.3054 157.944 56.2762 157.944 57.2885Z" fill="#3F3D56"/>
<path d="M6.07476 57.6766C6.69416 57.6766 7.19627 57.1745 7.19627 56.5551C7.19627 55.9357 6.69416 55.4336 6.07476 55.4336C5.45537 55.4336 4.95325 55.9357 4.95325 56.5551C4.95325 57.1745 5.45537 57.6766 6.07476 57.6766Z" fill="#1976D2"/>
<path d="M8.87845 57.6766C9.49784 57.6766 9.99995 57.1745 9.99995 56.5551C9.99995 55.9357 9.49784 55.4336 8.87845 55.4336C8.25907 55.4336 7.75696 55.9357 7.75696 56.5551C7.75696 57.1745 8.25907 57.6766 8.87845 57.6766Z" fill="#1976D2"/>
<path d="M11.6823 57.6766C12.3017 57.6766 12.8038 57.1745 12.8038 56.5551C12.8038 55.9357 12.3017 55.4336 11.6823 55.4336C11.0629 55.4336 10.5608 55.9357 10.5608 56.5551C10.5608 57.1745 11.0629 57.6766 11.6823 57.6766Z" fill="#1976D2"/>
<path d="M42.0019 69.3594H27.5309C26.5719 69.3594 25.7944 70.1368 25.7944 71.0958V82.2024C25.7944 83.1614 26.5719 83.9388 27.5309 83.9388H42.0019C42.9609 83.9388 43.7384 83.1614 43.7384 82.2024V71.0958C43.7384 70.1368 42.9609 69.3594 42.0019 69.3594Z" fill="white"/>
<path d="M62.9365 69.3594H48.4655C47.5064 69.3594 46.729 70.1368 46.729 71.0958V82.2024C46.729 83.1614 47.5064 83.9388 48.4655 83.9388H62.9365C63.8955 83.9388 64.6729 83.1614 64.6729 82.2024V71.0958C64.6729 70.1368 63.8955 69.3594 62.9365 69.3594Z" fill="#1976D2"/>
<path d="M83.8711 69.3594H69.4C68.441 69.3594 67.6636 70.1368 67.6636 71.0958V82.2024C67.6636 83.1614 68.441 83.9388 69.4 83.9388H83.8711C84.8301 83.9388 85.6075 83.1614 85.6075 82.2024V71.0958C85.6075 70.1368 84.8301 69.3594 83.8711 69.3594Z" fill="white"/>
<path d="M104.806 69.3594H90.3346C89.3756 69.3594 88.5981 70.1368 88.5981 71.0958V82.2024C88.5981 83.1614 89.3756 83.9388 90.3346 83.9388H104.806C105.765 83.9388 106.542 83.1614 106.542 82.2024V71.0958C106.542 70.1368 105.765 69.3594 104.806 69.3594Z" fill="white"/>
<path d="M125.74 69.3594H111.269C110.31 69.3594 109.533 70.1368 109.533 71.0958V82.2024C109.533 83.1614 110.31 83.9388 111.269 83.9388H125.74C126.699 83.9388 127.477 83.1614 127.477 82.2024V71.0958C127.477 70.1368 126.699 69.3594 125.74 69.3594Z" fill="#1976D2"/>
<path d="M42.0019 93.8457H27.5309C26.5719 93.8457 25.7944 94.6231 25.7944 95.5822V106.689C25.7944 107.648 26.5719 108.425 27.5309 108.425H42.0019C42.9609 108.425 43.7384 107.648 43.7384 106.689V95.5822C43.7384 94.6231 42.9609 93.8457 42.0019 93.8457Z" fill="white"/>
<path d="M62.9365 93.8457H48.4655C47.5064 93.8457 46.729 94.6231 46.729 95.5822V106.689C46.729 107.648 47.5064 108.425 48.4655 108.425H62.9365C63.8955 108.425 64.6729 107.648 64.6729 106.689V95.5822C64.6729 94.6231 63.8955 93.8457 62.9365 93.8457Z" fill="white"/>
<path d="M83.8711 93.8457H69.4C68.441 93.8457 67.6636 94.6231 67.6636 95.5822V106.689C67.6636 107.648 68.441 108.425 69.4 108.425H83.8711C84.8301 108.425 85.6075 107.648 85.6075 106.689V95.5822C85.6075 94.6231 84.8301 93.8457 83.8711 93.8457Z" fill="#1976D2"/>
<path d="M104.806 93.8457H90.3346C89.3756 93.8457 88.5981 94.6231 88.5981 95.5822V106.689C88.5981 107.648 89.3756 108.425 90.3346 108.425H104.806C105.765 108.425 106.542 107.648 106.542 106.689V95.5822C106.542 94.6231 105.765 93.8457 104.806 93.8457Z" fill="white"/>
<path d="M125.74 93.8457H111.269C110.31 93.8457 109.533 94.6231 109.533 95.5822V106.689C109.533 107.648 110.31 108.425 111.269 108.425H125.74C126.699 108.425 127.477 107.648 127.477 106.689V95.5822C127.477 94.6231 126.699 93.8457 125.74 93.8457Z" fill="white"/>
<path d="M42.0019 118.331H27.5309C26.5719 118.331 25.7944 119.108 25.7944 120.068V131.174C25.7944 132.133 26.5719 132.91 27.5309 132.91H42.0019C42.9609 132.91 43.7384 132.133 43.7384 131.174V120.068C43.7384 119.108 42.9609 118.331 42.0019 118.331Z" fill="white"/>
<path d="M62.9365 118.331H48.4655C47.5064 118.331 46.729 119.108 46.729 120.068V131.174C46.729 132.133 47.5064 132.91 48.4655 132.91H62.9365C63.8955 132.91 64.6729 132.133 64.6729 131.174V120.068C64.6729 119.108 63.8955 118.331 62.9365 118.331Z" fill="white"/>
<path d="M83.8711 118.331H69.4C68.441 118.331 67.6636 119.108 67.6636 120.068V131.174C67.6636 132.133 68.441 132.91 69.4 132.91H83.8711C84.8301 132.91 85.6075 132.133 85.6075 131.174V120.068C85.6075 119.108 84.8301 118.331 83.8711 118.331Z" fill="white"/>
<path opacity="0.3" d="M104.806 118.331H90.3346C89.3756 118.331 88.5981 119.108 88.5981 120.068V131.174C88.5981 132.133 89.3756 132.91 90.3346 132.91H104.806C105.765 132.91 106.542 132.133 106.542 131.174V120.068C106.542 119.108 105.765 118.331 104.806 118.331Z" fill="#1976D2"/>
<path d="M125.74 118.331H111.269C110.31 118.331 109.533 119.108 109.533 120.068V131.174C109.533 132.133 110.31 132.91 111.269 132.91H125.74C126.699 132.91 127.477 132.133 127.477 131.174V120.068C127.477 119.108 126.699 118.331 125.74 118.331Z" fill="white"/>
<path d="M68.8261 66.6752L67.8803 65.7238C67.8337 65.6767 67.7783 65.6393 67.7172 65.6138C67.6561 65.5883 67.5905 65.5752 67.5243 65.5752C67.458 65.5752 67.3925 65.5883 67.3313 65.6138C67.2702 65.6393 67.2148 65.6767 67.1682 65.7238L61.2317 71.6097L58.7214 69.0789C58.6752 69.0322 58.6202 68.9952 58.5596 68.9699C58.4989 68.9446 58.4339 68.9316 58.3682 68.9316C58.3025 68.9316 58.2374 68.9446 58.1768 68.9699C58.1162 68.9952 58.0611 69.0322 58.0149 69.0789L57.0598 70.0228C56.9659 70.118 56.9133 70.2462 56.9133 70.3798C56.9133 70.5135 56.9659 70.6417 57.0598 70.7369L60.871 74.578C60.9661 74.6718 61.0944 74.7244 61.228 74.7244C61.3616 74.7244 61.4899 74.6718 61.585 74.578L68.8261 67.3892C68.8735 67.3426 68.9111 67.287 68.9368 67.2257C68.9624 67.1644 68.9757 67.0986 68.9757 67.0322C68.9757 66.9657 68.9624 66.9 68.9368 66.8387C68.9111 66.7774 68.8735 66.7218 68.8261 66.6752Z" fill="#3ACC6C"/>
<path d="M132.378 66.6752L131.432 65.7238C131.385 65.6767 131.33 65.6393 131.269 65.6138C131.208 65.5883 131.142 65.5752 131.076 65.5752C131.01 65.5752 130.944 65.5883 130.883 65.6138C130.822 65.6393 130.766 65.6767 130.72 65.7238L124.783 71.6097L122.273 69.0789C122.227 69.0322 122.172 68.9952 122.111 68.9699C122.05 68.9446 121.985 68.9316 121.92 68.9316C121.854 68.9316 121.789 68.9446 121.728 68.9699C121.668 68.9952 121.613 69.0322 121.566 69.0789L120.611 70.0228C120.517 70.118 120.465 70.2462 120.465 70.3798C120.465 70.5135 120.517 70.6417 120.611 70.7369L124.422 74.578C124.518 74.6718 124.646 74.7244 124.78 74.7244C124.913 74.7244 125.041 74.6718 125.137 74.578L132.378 67.3892C132.425 67.3426 132.463 67.287 132.488 67.2257C132.514 67.1644 132.527 67.0986 132.527 67.0322C132.527 66.9657 132.514 66.9 132.488 66.8387C132.463 66.7774 132.425 66.7218 132.378 66.6752Z" fill="#3ACC6C"/>
<path d="M89.7607 90.974L88.8149 90.0226C88.7683 89.9755 88.7129 89.9382 88.6517 89.9127C88.5906 89.8872 88.5251 89.874 88.4588 89.874C88.3926 89.874 88.327 89.8872 88.2659 89.9127C88.2048 89.9382 88.1493 89.9755 88.1027 90.0226L82.1663 95.9086L79.656 93.3778C79.6098 93.3311 79.5548 93.294 79.4941 93.2687C79.4335 93.2434 79.3684 93.2304 79.3028 93.2304C79.2371 93.2304 79.172 93.2434 79.1114 93.2687C79.0507 93.294 78.9957 93.3311 78.9495 93.3778L77.9943 94.3217C77.9005 94.4168 77.8479 94.5451 77.8479 94.6787C77.8479 94.8123 77.9005 94.9406 77.9943 95.0357L81.8055 98.8768C81.9007 98.9707 82.0289 99.0233 82.1626 99.0233C82.2962 99.0233 82.4244 98.9707 82.5196 98.8768L89.7607 91.688C89.8081 91.6414 89.8457 91.5858 89.8713 91.5246C89.897 91.4633 89.9102 91.3975 89.9102 91.331C89.9102 91.2646 89.897 91.1988 89.8713 91.1375C89.8457 91.0762 89.8081 91.0206 89.7607 90.974Z" fill="#3ACC6C"/>
<path d="M110.508 116.395L109.563 115.444C109.516 115.396 109.461 115.359 109.399 115.334C109.338 115.308 109.273 115.295 109.207 115.295C109.14 115.295 109.075 115.308 109.014 115.334C108.952 115.359 108.897 115.396 108.85 115.444L102.914 121.33L100.404 118.799C100.357 118.752 100.302 118.715 100.242 118.69C100.181 118.664 100.116 118.651 100.05 118.651C99.9847 118.651 99.9197 118.664 99.859 118.69C99.7984 118.715 99.7434 118.752 99.6972 118.799L98.742 119.733C98.6482 119.828 98.5956 119.957 98.5956 120.09C98.5956 120.224 98.6482 120.352 98.742 120.447L102.553 124.288C102.648 124.382 102.777 124.435 102.91 124.435C103.044 124.435 103.172 124.382 103.267 124.288L110.508 117.1C110.601 117.006 110.653 116.879 110.653 116.747C110.653 116.615 110.601 116.489 110.508 116.395Z" fill="#3ACC6C"/>
</svg>
