<svg width="156" height="110" viewBox="0 0 156 110" fill="none" xmlns="http://www.w3.org/2000/svg">
<path d="M51.6401 20.2676C56.503 20.2676 60.4452 16.3254 60.4452 11.4625C60.4452 6.59959 56.503 2.65741 51.6401 2.65741C46.7771 2.65741 42.835 6.59959 42.835 11.4625C42.835 16.3254 46.7771 20.2676 51.6401 20.2676Z" fill="#F3ACAC"/>
<path d="M38.2647 29.7144L34.9541 27.0659L53.4953 10.511H100.51V25.0795L70.0417 45.6072L38.2647 29.7144Z" fill="#3B79C0"/>
<path d="M107.516 19.5255V10.8327H101.274V12.9621L98.9437 10.5127L83.7131 26.5808L77.7557 30.4378L68.5149 95.9697L82.4519 109.497H114.84V27.2225L107.516 19.5255Z" fill="#CCCCCC"/>
<path d="M85.6247 24.0719H35.2979V109.495H85.6247V24.0719Z" fill="#F2F2F2"/>
<path d="M63.8511 88.6353H54.5796V109.495H63.8511V88.6353Z" fill="#CCCCCC"/>
<path d="M45.3013 94.5979V91.2872H41.3285V94.5979H45.3013Z" fill="#3B79C0"/>
<path d="M44.9711 97.2446H41.3285V100.555H45.3013V97.2446H44.9711Z" fill="#3B79C0"/>
<path d="M51.6503 91.2838H47.6775V94.5944H51.6503V91.2838Z" fill="#3B79C0"/>
<path d="M51.6503 97.2446H47.6775V100.555H51.6503V97.2446Z" fill="#3B79C0"/>
<path d="M71.3303 94.5979V91.2872H67.3574V94.5979H71.3303Z" fill="#3B79C0"/>
<path d="M71 97.2446H67.3574V100.555H71.3303V97.2446H71Z" fill="#3B79C0"/>
<path d="M77.6792 91.2838H73.7064V94.5944H77.6792V91.2838Z" fill="#3B79C0"/>
<path d="M77.6792 97.2446H73.7064V100.555H77.6792V97.2446Z" fill="#3B79C0"/>
<path d="M97.9941 30.6046V27.294H94.0214V30.6046H97.9941Z" fill="#3B79C0"/>
<path d="M97.6638 33.0898H94.0214V36.4004H97.9941V33.0898H97.6638Z" fill="#3B79C0"/>
<path d="M104.343 27.294H100.37V30.6046H104.343V27.294Z" fill="#3B79C0"/>
<path d="M104.343 33.0898H100.37V36.4004H104.343V33.0898Z" fill="#3B79C0"/>
<path d="M97.9941 48.637V45.3263H94.0214V48.637H97.9941Z" fill="#3B79C0"/>
<path d="M97.6638 51.1221H94.0214V54.4327H97.9941V51.1221H97.6638Z" fill="#3B79C0"/>
<path d="M104.343 45.3263H100.37V48.637H104.343V45.3263Z" fill="#3B79C0"/>
<path d="M104.343 51.1221H100.37V54.4327H104.343V51.1221Z" fill="#3B79C0"/>
<path d="M97.9941 66.6676V63.357H94.0214V66.6676H97.9941Z" fill="#3B79C0"/>
<path d="M97.6638 69.1544H94.0214V72.465H97.9941V69.1544H97.6638Z" fill="#3B79C0"/>
<path d="M104.343 63.357H100.37V66.6676H104.343V63.357Z" fill="#3B79C0"/>
<path d="M104.343 69.1544H100.37V72.4651H104.343V69.1544Z" fill="#3B79C0"/>
<path d="M97.9941 84.6999V81.3945H94.0214V84.705H97.9941V84.6999Z" fill="#3B79C0"/>
<path d="M97.6638 87.185H94.0214V90.4957H97.9941V87.185H97.6638Z" fill="#3B79C0"/>
<path d="M104.343 81.3893H100.37V84.7H104.343V81.3893Z" fill="#3B79C0"/>
<path d="M104.343 87.1851H100.37V90.4957H104.343V87.1851Z" fill="#3B79C0"/>
<path d="M79.2452 30.4753H40.8384V38.4208H79.2452V30.4753Z" fill="#3B79C0"/>
<path d="M79.2452 45.9119H40.8384V53.8574H79.2452V45.9119Z" fill="#3B79C0"/>
<path d="M79.2452 61.3485H40.8384V69.294H79.2452V61.3485Z" fill="#3B79C0"/>
<path d="M79.2452 76.7851H40.8384V84.7306H79.2452V76.7851Z" fill="#3B79C0"/>
<path d="M155.186 109.161H2.26978V109.485H155.186V109.161Z" fill="#3B79C0"/>
<path d="M27.0494 71.728H26.0962V109.347H27.0494V71.728Z" fill="#3B79C0"/>
<path d="M35.8375 76.5213C35.8987 89.6753 26.646 100.382 26.646 100.382C26.646 100.382 17.2928 89.7604 17.2315 76.6063C17.1702 63.4523 26.423 52.7459 26.423 52.7459C26.423 52.7459 35.7762 63.3672 35.8375 76.5213Z" fill="#3B79C0"/>
<path d="M14.6682 71.728H13.715V109.347H14.6682V71.728Z" fill="#3B79C0"/>
<path d="M23.4562 76.5213C23.5175 89.6753 14.2647 100.382 14.2647 100.382C14.2647 100.382 4.91156 89.7604 4.85028 76.6063C4.789 63.4523 14.0418 52.7459 14.0418 52.7459C14.0418 52.7459 23.395 63.3672 23.4562 76.5213Z" fill="#BFDFF5"/>
<path d="M132.813 26.4412C125.312 26.4753 119.204 26.5859 119.204 26.5859C119.204 26.5859 126.462 16.9723 132.786 20.5332C137.136 22.8946 141.682 24.8775 146.372 26.46C146.372 26.46 140.314 26.4072 132.813 26.4412Z" fill="#F2F2F2"/>
<path d="M14.3107 44.397C6.80939 44.431 0.702148 44.5416 0.702148 44.5416C0.702148 44.5416 7.96001 34.928 14.2834 38.4889C18.6339 40.8503 23.1795 42.8333 27.8698 44.4157C27.8698 44.4157 21.8119 44.3629 14.3107 44.397Z" fill="#F2F2F2"/>
<path d="M40.2273 6.90932C32.726 6.94337 26.6188 7.054 26.6188 7.054C26.6188 7.054 33.8767 -2.55962 40.2001 1.00124C44.5506 3.36265 49.0961 5.34557 53.7864 6.92805C53.7864 6.92805 47.7286 6.87528 40.2273 6.90932Z" fill="#F2F2F2"/>
<path d="M146.539 71.728H145.586V109.347H146.539V71.728Z" fill="#3B79C0"/>
<path d="M155.328 76.5213C155.39 89.6753 146.137 100.382 146.137 100.382C146.137 100.382 136.784 89.7604 136.724 76.6063C136.665 63.4523 145.916 52.7459 145.916 52.7459C145.916 52.7459 155.267 63.3672 155.328 76.5213Z" fill="#BFDFF5"/>
<path d="M113.216 85.9953H122.828V83.6753H128.13V85.9953H138.072V96.2693H128.13V109.195H122.828V96.2693H113.216L108.244 90.6353L113.216 85.9953Z" fill="#3B79C0"/>
</svg>